<?xml version="1.0" encoding="UTF-8" standalone="no"?><svg xmlns="http://www.w3.org/2000/svg" version="1.1" xmlns:xlink="http://www.w3.org/1999/xlink" xmlns:svgjs="http://svgjs.dev/svgjs" width="1000" height="999" viewBox="0 0 1000 999"><g transform="matrix(1,0,0,1,-0.215743440233382,-0.21552769679306039)"><svg viewBox="0 0 343 343" data-background-color="#ffffff" preserveAspectRatio="xMidYMid meet" height="999" width="1000" xmlns="http://www.w3.org/2000/svg" xmlns:xlink="http://www.w3.org/1999/xlink"><g id="tight-bounds" transform="matrix(1,0,0,1,0.0740000000000407,0.07400000000001228)"><svg viewBox="0 0 342.85155851775386 342.85155851775386" height="342.85155851775386" width="342.85155851775386"><g><svg></svg></g><g><svg viewBox="0 0 342.85155851775386 342.85155851775386" height="342.85155851775386" width="342.85155851775386"><g><path d="M0 171.426c0-94.676 76.75-171.426 171.426-171.426 94.676 0 171.426 76.75 171.426 171.426 0 94.676-76.75 171.426-171.426 171.426-94.676 0-171.426-76.75-171.426-171.426zM171.426 338.087c92.045 0 166.662-74.617 166.661-166.661 0-92.045-74.617-166.662-166.661-166.662-92.045 0-166.662 74.617-166.662 166.662 0 92.045 74.617 166.662 166.662 166.661z" data-fill-palette-color="tertiary" fill="#2979ff" stroke="transparent"></path><ellipse rx="164.56874808852186" ry="164.56874808852186" cx="171.42577925887693" cy="171.42577925887693" fill="#2979ff" stroke="transparent" stroke-width="0" fill-opacity="1" data-fill-palette-color="tertiary"></ellipse></g><g transform="matrix(1,0,0,1,64.84655864529837,103.1139463013607)"><svg viewBox="0 0 213.1584412271571 136.62366591503246" height="136.62366591503246" width="213.1584412271571"><g><svg viewBox="0 0 213.1584412271571 136.62366591503246" height="136.62366591503246" width="213.1584412271571"><g transform="matrix(1,0,0,1,0,83.7940876056889)"><svg viewBox="0 0 213.1584412271571 52.82957830934355" height="52.82957830934355" width="213.1584412271571"><g><svg viewBox="0 0 213.1584412271571 52.82957830934355" height="52.82957830934355" width="213.1584412271571"><g><svg viewBox="0 0 213.1584412271571 52.82957830934355" height="52.82957830934355" width="213.1584412271571"><g transform="matrix(1,0,0,1,0,0)"><svg width="213.1584412271571" viewBox="4.489999771118164 -36.19939041137695 146.64999389648438 36.34939193725586" height="52.82957830934355" data-palette-color="#ffffff"><path d="M27.8-0.9L15.1-17.05 9.9-12.75Q9.95-6.9 10.15-2.6L10.15-2.6Q10.2-1.55 9.53-0.78 8.85 0 7.8 0.05 6.75 0.1 5.98-0.58 5.2-1.25 5.15-2.3L5.15-2.3Q5-5.3 4.95-8.2L4.95-8.2Q4.9-11.8 4.9-15.55 4.9-19.3 4.85-21.4L4.85-21.4Q4.85-22.7 4.65-26.78 4.45-30.85 4.5-33.3L4.5-33.3Q4.5-34.35 5.25-35.05 6-35.75 7.05-35.75 8.1-35.75 8.8-35 9.5-34.25 9.5-33.2L9.5-33.2Q9.45-30.8 9.65-26.8 9.85-22.8 9.85-21.5L9.85-21.5Q9.85-20.4 9.9-19.15L9.9-19.15Q17.75-25.7 26.2-34.9L26.2-34.9Q26.9-35.65 27.95-35.7 29-35.75 29.75-35.05 30.5-34.35 30.55-33.3 30.6-32.25 29.9-31.5L29.9-31.5Q24.3-25.3 18.85-20.35L18.85-20.35 31.7-4Q32.35-3.2 32.23-2.18 32.1-1.15 31.3-0.5 30.5 0.15 29.48 0.03 28.45-0.1 27.8-0.9L27.8-0.9ZM37.7-1.5L37.7-1.5Q37.3-0.5 36.32-0.1 35.35 0.3 34.37-0.1 33.4-0.5 33-1.48 32.6-2.45 33-3.4L33-3.4Q34-5.85 35.62-10.85 37.25-15.85 37.95-17.6L37.95-17.6Q38.3-18.6 40.8-24.7L40.8-24.7Q43.15-30.7 44.45-34.45L44.45-34.45Q44.8-35.45 45.72-35.93 46.65-36.4 47.65-36.05L47.65-36.05Q48.1-35.9 48.45-35.6L48.45-35.6Q49.45-35.25 49.85-34.25L49.85-34.25 62.3-3.5Q62.7-2.5 62.3-1.53 61.9-0.55 60.92-0.15 59.95 0.25 58.97-0.15 58-0.55 57.6-1.5L57.6-1.5 53.85-11.2Q51.8-11.1 51.55-11.1L51.55-11.1Q44.8-10.85 40.95-10.85L40.95-10.85Q38.7-4.25 37.7-1.5L37.7-1.5ZM42.8-15.95L42.8-15.95Q47-16 51.8-16.15L51.8-16.15 47.25-27.15 42.8-15.95ZM101.2-2.35L101.2-2.35Q101.15-1.3 100.4-0.6 99.65 0.1 98.59 0.05 97.55 0 96.84-0.75 96.15-1.5 96.19-2.55L96.19-2.55Q96.4-4.05 96.34-14.5 96.3-24.95 96.3-26.45L96.3-26.45Q92.45-21.45 87.4-13.65L87.4-13.65Q86.84-12.75 85.82-12.55 84.8-12.35 83.95-12.9L83.95-12.9Q83.9-12.95 83.84-12.95L83.84-12.95Q83.4-13.25 83.09-13.65L83.09-13.65Q81-16.6 76-22.6L76-22.6 72.75-26.5Q72.9-22.75 72.9-17.9L72.9-17.9Q72.9-15.5 72.82-10.35 72.75-5.2 72.75-2.55L72.75-2.55Q72.75-1.5 72.02-0.78 71.3-0.05 70.25-0.05 69.2-0.05 68.47-0.78 67.75-1.5 67.75-2.55L67.75-2.55Q67.75-5.2 67.82-10.35 67.89-15.5 67.89-17.95L67.89-17.95Q67.89-27.3 67.3-33L67.3-33Q67.2-34.05 67.84-34.85 68.5-35.65 69.55-35.75L69.55-35.75Q70.05-35.8 70.5-35.65L70.5-35.65Q71.64-35.6 72.4-34.7L72.4-34.7 79.84-25.85Q83-22.1 85.15-19.3L85.15-19.3Q91.84-29.5 96.8-34.85L96.8-34.85Q97-35.05 97.19-35.2L97.19-35.2Q98-35.95 99.05-35.9 100.09-35.85 100.8-35.1 101.5-34.35 101.45-33.3L101.45-33.3Q101.25-28.05 101.32-17.73 101.4-7.4 101.2-2.35L101.2-2.35ZM110.84-2.35L110.84-2.35Q110.84-2.85 110.49-17.1L110.49-17.1Q110.29-26.95 110.79-33.1L110.79-33.1Q110.89-34.15 111.67-34.8 112.44-35.45 113.49-35.4L113.49-35.4Q113.99-35.35 114.44-35.1L114.44-35.1Q120.29-36.3 124.99-35.65L124.99-35.65Q133.24-34.5 135.69-28.15L135.69-28.15Q136.64-25.1 136.42-23.18 136.19-21.25 135.27-19.73 134.34-18.2 132.92-17.25 131.49-16.3 130.04-15.73 128.59-15.15 126.94-14.85L126.94-14.85Q121.84-13.8 115.59-14.5L115.59-14.5Q115.84-4.9 115.84-2.35L115.84-2.35Q115.84-1.3 115.12-0.58 114.39 0.15 113.34 0.15 112.29 0.15 111.57-0.58 110.84-1.3 110.84-2.35L110.84-2.35ZM115.49-19.45L115.49-19.45Q115.79-19.5 116.14-19.5L116.14-19.5Q121.59-18.85 125.94-19.75L125.94-19.75Q131.09-20.8 131.44-23.75L131.44-23.75Q131.54-24.45 130.99-26.35L130.99-26.35Q129.64-29.95 124.34-30.7L124.34-30.7Q120.54-31.2 115.64-30.25L115.64-30.25Q115.39-25.85 115.49-19.45L115.49-19.45ZM141.74 0.1L141.74 0.1Q140.69 0.15 139.94-0.58 139.19-1.3 139.14-2.33 139.09-3.35 139.82-4.1 140.54-4.85 141.54-4.9L141.54-4.9 142.64-4.95Q142.64-20.5 142.54-30.8L142.54-30.8 141.74-30.8Q140.69-30.8 139.99-31.55 139.29-32.3 139.29-33.35 139.29-34.4 140.04-35.1 140.79-35.8 141.84-35.8L141.84-35.8Q144.39-35.75 148.04-35.7L148.04-35.7Q149.04-35.7 149.77-34.95 150.49-34.2 150.49-33.18 150.49-32.15 149.74-31.43 148.99-30.7 147.94-30.7L147.94-30.7 147.54-30.7Q147.64-20.45 147.64-5L147.64-5 148.64-5Q149.69-5 150.42-4.28 151.14-3.55 151.14-2.5 151.14-1.45 150.42-0.73 149.69 0 148.64 0L148.64 0Q144.79 0 141.74 0.1L141.74 0.1Z" opacity="1" transform="matrix(1,0,0,1,0,0)" fill="#ffffff" class="undefined-text-0" data-fill-palette-color="quaternary" id="text-0"></path></svg></g></svg></g></svg></g></svg></g><g transform="matrix(1,0,0,1,40.713262274387006,0)"><svg viewBox="0 0 131.7319166783831 71.32229207673231" height="71.32229207673231" width="131.7319166783831"><g><svg xmlns="http://www.w3.org/2000/svg" xmlns:xlink="http://www.w3.org/1999/xlink" version="1.1" x="0" y="0" viewBox="0 22.92799949645996 100 54.141998291015625" enable-background="new 0 0 100 100" xml:space="preserve" height="71.32229207673231" width="131.7319166783831" class="icon-icon-0" data-fill-palette-color="quaternary" id="icon-0"><g fill="#ffffff" data-fill-palette-color="quaternary"><g fill="#ffffff" data-fill-palette-color="quaternary"><g fill="#ffffff" data-fill-palette-color="quaternary"><g fill="#ffffff" data-fill-palette-color="quaternary"><path d="M85.861 62.488c-4.025 0-7.293 3.265-7.293 7.289 0 4.029 3.268 7.293 7.293 7.293 4.027 0 7.293-3.264 7.293-7.293C93.154 65.753 89.891 62.488 85.861 62.488zM85.861 74.818c-2.782 0-5.039-2.256-5.039-5.041 0-2.781 2.257-5.036 5.039-5.036 2.783 0 5.039 2.255 5.039 5.036C90.9 72.563 88.646 74.818 85.861 74.818zM82.116 69.141c0.243 0.135 0.524 0.09 0.629-0.102l0.78-1.421c0.104-0.192-0.01-0.453-0.254-0.587-0.242-0.135-0.523-0.088-0.627 0.102l-0.781 1.424C81.759 68.746 81.872 69.009 82.116 69.141zM85.079 66.695h1.624c0.216 0 0.393-0.225 0.393-0.502 0-0.276-0.177-0.504-0.393-0.504h-1.624c-0.218 0-0.392 0.228-0.392 0.504C84.688 66.471 84.861 66.695 85.079 66.695zM88.992 68.877c0.113 0.186 0.396 0.216 0.633 0.068 0.236-0.146 0.337-0.412 0.225-0.596l-0.854-1.382c-0.114-0.185-0.397-0.215-0.634-0.069-0.236 0.146-0.336 0.414-0.221 0.6L88.992 68.877zM89.667 70.536c-0.244-0.134-0.524-0.087-0.63 0.103l-0.779 1.424c-0.104 0.188 0.01 0.453 0.254 0.584 0.241 0.135 0.523 0.09 0.627-0.102l0.781-1.424C90.023 70.932 89.909 70.671 89.667 70.536zM82.791 70.8c-0.113-0.185-0.398-0.215-0.635-0.069-0.235 0.146-0.336 0.414-0.223 0.6l0.854 1.38c0.115 0.185 0.398 0.217 0.635 0.069 0.235-0.146 0.335-0.414 0.223-0.598L82.791 70.8zM85.861 67.354c-1.338 0-2.424 1.086-2.424 2.424 0 1.342 1.086 2.428 2.424 2.428 1.34 0 2.426-1.086 2.426-2.428C88.287 68.439 87.201 67.354 85.861 67.354zM86.703 72.98h-1.624c-0.218 0-0.392 0.228-0.392 0.504 0 0.277 0.174 0.505 0.392 0.505h1.624c0.216 0 0.393-0.228 0.393-0.505C87.096 73.208 86.919 72.98 86.703 72.98z" fill="#ffffff" data-fill-palette-color="quaternary"></path><path d="M17.761 62.488c-4.027 0-7.292 3.265-7.292 7.289 0 4.029 3.265 7.293 7.292 7.293 4.028 0 7.293-3.264 7.293-7.293C25.054 65.753 21.789 62.488 17.761 62.488zM17.761 74.818c-2.783 0-5.039-2.256-5.039-5.041 0-2.781 2.255-5.036 5.039-5.036 2.784 0 5.039 2.255 5.039 5.036C22.8 72.563 20.544 74.818 17.761 74.818zM14.015 69.141c0.243 0.135 0.525 0.09 0.629-0.102l0.781-1.421c0.104-0.192-0.009-0.453-0.253-0.587-0.243-0.135-0.526-0.088-0.63 0.102l-0.78 1.424C13.66 68.746 13.771 69.009 14.015 69.141zM16.979 66.695h1.624c0.216 0 0.392-0.225 0.392-0.502 0-0.276-0.176-0.504-0.392-0.504h-1.624c-0.216 0-0.392 0.228-0.392 0.504C16.587 66.471 16.763 66.695 16.979 66.695zM20.891 68.877c0.113 0.186 0.396 0.216 0.633 0.068 0.236-0.146 0.335-0.412 0.222-0.596l-0.854-1.382c-0.113-0.185-0.396-0.215-0.633-0.069-0.236 0.146-0.335 0.414-0.222 0.6L20.891 68.877zM21.566 70.536c-0.244-0.134-0.525-0.087-0.629 0.103l-0.78 1.424c-0.104 0.188 0.009 0.453 0.252 0.584 0.244 0.135 0.526 0.09 0.63-0.102l0.78-1.424C21.922 70.932 21.809 70.671 21.566 70.536zM14.689 70.8c-0.113-0.185-0.396-0.215-0.633-0.069-0.235 0.146-0.335 0.414-0.221 0.6l0.853 1.38c0.113 0.185 0.396 0.217 0.632 0.069 0.237-0.146 0.336-0.414 0.223-0.598L14.689 70.8zM17.761 67.354c-1.339 0-2.424 1.086-2.424 2.424 0 1.342 1.085 2.428 2.424 2.428 1.339 0 2.424-1.086 2.424-2.428C20.186 68.439 19.101 67.354 17.761 67.354zM18.603 72.98h-1.624c-0.216 0-0.392 0.228-0.392 0.504 0 0.277 0.176 0.505 0.392 0.505h1.624c0.216 0 0.392-0.228 0.392-0.505C18.995 73.208 18.818 72.98 18.603 72.98z" fill="#ffffff" data-fill-palette-color="quaternary"></path></g></g><path d="M84.73 42.381c0 0-0.106-0.1-10.967-8.701C62.902 25.079 60 22.928 52.473 22.928c-7.526 0-46.375 0-46.375 0C2.743 22.928 0 25.671 0 29.024v35.765c0 3.354 2.743 6.097 6.096 6.097H7.65c-0.039-0.362-0.061-0.731-0.061-1.106 0-5.617 4.555-10.172 10.172-10.172 5.617 0 10.172 4.555 10.172 10.172 0 0.375-0.022 0.744-0.06 1.106H75.75c-0.039-0.362-0.061-0.731-0.061-1.106 0-5.617 4.555-10.172 10.172-10.172 5.619 0 10.173 4.555 10.173 10.172 0 0.244-0.011 0.482-0.027 0.724 2.322-0.862 3.993-3.101 3.993-5.714v-4.262C100 51.021 87.215 44.634 84.73 42.381zM1.532 32.979h61.852v0.708H1.532V32.979zM56.977 64.98V36.613h0.711V64.98H56.977zM51.499 48.274H43.44c-1.124 0-2.037-0.913-2.037-2.038V38.18c0-1.125 0.913-2.039 2.037-2.039h8.059c1.125 0 2.036 0.913 2.036 2.039v8.056C53.535 47.361 52.624 48.274 51.499 48.274zM53.535 51.793v0.798c0 0.267-0.213 0.478-0.479 0.478h-3.083c-0.265 0-0.479-0.211-0.479-0.478v-0.798c0-0.266 0.214-0.48 0.479-0.48h3.083C53.322 51.313 53.535 51.527 53.535 51.793zM3.021 64.383c0 0.555-0.447 1.003-1.001 1.003-0.553 0-1-0.448-1-1.003V62c0-0.552 0.447-1 1-1 0.554 0 1.001 0.448 1.001 1V64.383zM3.021 44.255c0 0.553-0.447 1.001-1.001 1.001-0.553 0-1-0.448-1-1.001v-7.261c0-0.552 0.447-1 1-1 0.554 0 1.001 0.448 1.001 1V44.255zM27.813 59.271v-4.629H4.282v-2.088h23.531V36.613h0.708v15.942h3.026l3.146 2.088h-6.172v4.629H27.813zM74.148 69.03H29.333v-2.399h44.815V69.03zM61.771 52.591v-0.798c0-0.266 0.213-0.48 0.479-0.48h3.084c0.264 0 0.479 0.215 0.479 0.48v0.798c0 0.267-0.215 0.478-0.479 0.478H62.25C61.984 53.068 61.771 52.855 61.771 52.591zM82.783 50.252c0 1.343-1.065 2.175-2.368 1.852l-16.45-3.401c-1.303-0.323-2.365-1.686-2.365-3.027v-7.279c0-1.342 1.096-2.438 2.438-2.438h5.582c1.34 0 3.271 0.714 4.288 1.587l7.024 5.336c1.02 0.874 1.853 2.685 1.853 4.026L82.783 50.252 82.783 50.252zM98.247 57.746c-0.451 0.449-1.992-0.355-3.438-1.803-1.449-1.449-2.256-2.99-1.805-3.44 0.452-0.453 1.993 0.354 3.439 1.802C97.893 55.752 98.699 57.293 98.247 57.746z" fill="#ffffff" data-fill-palette-color="quaternary"></path></g></g></svg></g></svg></g><g></g></svg></g></svg></g></svg></g><defs></defs></svg><rect width="342.85155851775386" height="342.85155851775386" fill="none" stroke="none" visibility="hidden"></rect></g></svg></g></svg>